{
  "accessors": [
    {
      "bufferView": 2,
      "componentType": 5126,
      "count": 139,
      "max": [
        65.7499008178711,
        61.35459899902344,
        54.22710037231445
      ],
      "min": [
        10.148500442504883,
        7.136879920959473,
        36.944400787353516
      ],
      "type": "VEC3"
    },
    {
      "bufferView": 2,
      "byteOffset": 1668,
      "componentType": 5126,
      "count": 139,
      "max": [
        0.990626335144043,
        0.9999951124191284,
        0.42997509241104126
      ],
      "min": [
        -0.9911093711853027,
        -0.4077160060405731,
        -0.9999852180480957
      ],
      "type": "VEC3"
    },
    {
      "bufferView": 1,
      "componentType": 5126,
      "count": 139,
      "max": [
        15236.900390625,
        2112.860107421875
      ],
      "min": [
        -14882.099609375,
        0.7498130202293396
      ],
      "type": "VEC2"
    },
    {
      "bufferView": 0,
      "componentType": 5125,
      "count": 330,
      "type": "SCALAR"
    },
    {
      "bufferView": 2,
      "byteOffset": 3336,
      "componentType": 5126,
      "count": 414,
      "max": [
        65.59410095214844,
        186.89700317382813,
        35.93170166015625
      ],
      "min": [
        10.338000297546387,
        5.305089950561523,
        23.967599868774414
      ],
      "type": "VEC3"
    },
    {
      "bufferView": 2,
      "byteOffset": 8304,
      "componentType": 5126,
      "count": 414,
      "max": [
        0.9999637603759766,
        0.9623450040817261,
        0.9999861121177673
      ],
      "min": [
        -0.9999637603759766,
        -0.9987339973449707,
        -0.9999995827674866
      ],
      "type": "VEC3"
    },
    {
      "bufferView": 1,
      "byteOffset": 1112,
      "componentType": 5126,
      "count": 414,
      "max": [
        15302.7998046875,
        14678.2001953125
      ],
      "min": [
        -15349.599609375,
        -15322.0
      ],
      "type": "VEC2"
    },
    {
      "bufferView": 0,
      "byteOffset": 1320,
      "componentType": 5125,
      "count": 414,
      "type": "SCALAR"
    },
    {
      "bufferView": 2,
      "byteOffset": 13272,
      "componentType": 5126,
      "count": 162,
      "max": [
        55.128501892089844,
        94.20709991455078,
        55.5546989440918
      ],
      "min": [
        20.770200729370117,
        71.8407974243164,
        54.5281982421875
      ],
      "type": "VEC3"
    },
    {
      "bufferView": 2,
      "byteOffset": 15216,
      "componentType": 5126,
      "count": 162,
      "max": [
        0.6082189679145813,
        0.7224529981613159,
        0.9998173713684082
      ],
      "min": [
        -0.6606793999671936,
        -0.7532251477241516,
        0.6568100452423096
      ],
      "type": "VEC3"
    },
    {
      "bufferView": 1,
      "byteOffset": 4424,
      "componentType": 5126,
      "count": 162,
      "max": [
        0.6896860003471375,
        0.3954649865627289
      ],
      "min": [
        0.5869020223617554,
        0.23759199678897858
      ],
      "type": "VEC2"
    },
    {
      "bufferView": 0,
      "byteOffset": 2976,
      "componentType": 5125,
      "count": 534,
      "type": "SCALAR"
    },
    {
      "bufferView": 2,
      "byteOffset": 17160,
      "componentType": 5126,
      "count": 162,
      "max": [
        55.128501892089844,
        94.20709991455078,
        55.5546989440918
      ],
      "min": [
        20.770200729370117,
        71.8407974243164,
        54.5281982421875
      ],
      "type": "VEC3"
    },
    {
      "bufferView": 2,
      "byteOffset": 19104,
      "componentType": 5126,
      "count": 162,
      "max": [
        0.6082189679145813,
        0.7224529981613159,
        0.9998173713684082
      ],
      "min": [
        -0.6606793999671936,
        -0.7532251477241516,
        0.6568100452423096
      ],
      "type": "VEC3"
    },
    {
      "bufferView": 1,
      "byteOffset": 5720,
      "componentType": 5126,
      "count": 162,
      "max": [
        0.6896860003471375,
        0.3954649865627289
      ],
      "min": [
        0.5869020223617554,
        0.23759199678897858
      ],
      "type": "VEC2"
    },
    {
      "bufferView": 0,
      "byteOffset": 5112,
      "componentType": 5125,
      "count": 534,
      "type": "SCALAR"
    },
    {
      "bufferView": 2,
      "byteOffset": 21048,
      "componentType": 5126,
      "count": 6265,
      "max": [
        75.89869689941406,
        194.11199951171875,
        43.52909851074219
      ],
      "min": [
        0.0003979539906140417,
        0.0,
        10.413000106811523
      ],
      "type": "VEC3"
    },
    {
      "bufferView": 2,
      "byteOffset": 96228,
      "componentType": 5126,
      "count": 6265,
      "max": [
        0.9999262094497681,
        0.9999998807907104,
        0.9999971389770508
      ],
      "min": [
        -0.9999260902404785,
        -0.9999988675117493,
        -1.0
      ],
      "type": "VEC3"
    },
    {
      "bufferView": 1,
      "byteOffset": 7016,
      "componentType": 5126,
      "count": 6265,
      "max": [
        11826.400390625,
        8148.83984375
      ],
      "min": [
        -11580.5,
        -12007.099609375
      ],
      "type": "VEC2"
    },
    {
      "bufferView": 0,
      "byteOffset": 7248,
      "componentType": 5125,
      "count": 27930,
      "type": "SCALAR"
    },
    {
      "bufferView": 2,
      "byteOffset": 171408,
      "componentType": 5126,
      "count": 7537,
      "max": [
        75.89839935302734,
        192.44700622558594,
        55.23360061645508
      ],
      "min": [
        2.063260078430176,
        4.937079906463623,
        11.791999816894531
      ],
      "type": "VEC3"
    },
    {
      "bufferView": 2,
      "byteOffset": 261852,
      "componentType": 5126,
      "count": 7537,
      "max": [
        0.9999704957008362,
        0.9997013807296753,
        0.9999971389770508
      ],
      "min": [
        -0.9999704957008362,
        -0.9999799728393555,
        -1.0
      ],
      "type": "VEC3"
    },
    {
      "bufferView": 1,
      "byteOffset": 57136,
      "componentType": 5126,
      "count": 7537,
      "max": [
        11826.400390625,
        6169.52978515625
      ],
      "min": [
        -11579.5,
        -3116.14990234375
      ],
      "type": "VEC2"
    },
    {
      "bufferView": 0,
      "byteOffset": 118968,
      "componentType": 5125,
      "count": 23481,
      "type": "SCALAR"
    },
    {
      "bufferView": 2,
      "byteOffset": 352296,
      "componentType": 5126,
      "count": 9376,
      "max": [
        73.83589935302734,
        191.9759979248047,
        54.22710037231445
      ],
      "min": [
        2.063260078430176,
        2.548830032348633,
        5.912380218505859
      ],
      "type": "VEC3"
    },
    {
      "bufferView": 2,
      "byteOffset": 464808,
      "componentType": 5126,
      "count": 9376,
      "max": [
        1.0,
        1.0,
        0.9999946355819702
      ],
      "min": [
        -1.0,
        -1.0,
        -1.0
      ],
      "type": "VEC3"
    },
    {
      "bufferView": 1,
      "byteOffset": 117432,
      "componentType": 5126,
      "count": 9376,
      "max": [
        12348.7001953125,
        12047.2001953125
      ],
      "min": [
        -13933.099609375,
        -15374.599609375
      ],
      "type": "VEC2"
    },
    {
      "bufferView": 0,
      "byteOffset": 212892,
      "componentType": 5125,
      "count": 21651,
      "type": "SCALAR"
    },
    {
      "bufferView": 2,
      "byteOffset": 577320,
      "componentType": 5126,
      "count": 2237,
      "max": [
        72.2739028930664,
        186.8419952392578,
        40.34370040893555
      ],
      "min": [
        3.625269889831543,
        12.780099868774414,
        6.1841301918029785
      ],
      "type": "VEC3"
    },
    {
      "bufferView": 2,
      "byteOffset": 604164,
      "componentType": 5126,
      "count": 2237,
      "max": [
        1.0,
        1.0,
        0.9993765354156494
      ],
      "min": [
        -1.0,
        -1.0,
        -1.0
      ],
      "type": "VEC3"
    },
    {
      "bufferView": 1,
      "byteOffset": 192440,
      "componentType": 5126,
      "count": 2237,
      "max": [
        12196.0,
        0.9980630278587341
      ],
      "min": [
        -12557.400390625,
        -3577.1298828125
      ],
      "type": "VEC2"
    },
    {
      "bufferView": 0,
      "byteOffset": 299496,
      "componentType": 5125,
      "count": 3825,
      "type": "SCALAR"
    },
    {
      "bufferView": 2,
      "byteOffset": 631008,
      "componentType": 5126,
      "count": 9746,
      "max": [
        67.83509826660156,
        124.31300354003906,
        53.537601470947266
      ],
      "min": [
        8.421990394592285,
        38.08660125732422,
        10.753100395202637
      ],
      "type": "VEC3"
    },
    {
      "bufferView": 2,
      "byteOffset": 747960,
      "componentType": 5126,
      "count": 9746,
      "max": [
        1.0,
        0.9999996423721313,
        0.999999463558197
      ],
      "min": [
        -1.0,
        -1.0,
        -0.9999914765357971
      ],
      "type": "VEC3"
    },
    {
      "bufferView": 1,
      "byteOffset": 210336,
      "componentType": 5126,
      "count": 9746,
      "max": [
        8326.6103515625,
        7960.35986328125
      ],
      "min": [
        -10131.2998046875,
        -7399.02978515625
      ],
      "type": "VEC2"
    },
    {
      "bufferView": 0,
      "byteOffset": 314796,
      "componentType": 5125,
      "count": 18003,
      "type": "SCALAR"
    },
    {
      "bufferView": 2,
      "byteOffset": 864912,
      "componentType": 5126,
      "count": 9946,
      "max": [
        66.88800048828125,
        127.072998046875,
        52.512298583984375
      ],
      "min": [
        12.23900032043457,
        55.064701080322266,
        11.019000053405762
      ],
      "type": "VEC3"
    },
    {
      "bufferView": 2,
      "byteOffset": 984264,
      "componentType": 5126,
      "count": 9946,
      "max": [
        1.0,
        1.0,
        1.0
      ],
      "min": [
        -1.0,
        -1.0,
        -0.9999914765357971
      ],
      "type": "VEC3"
    },
    {
      "bufferView": 1,
      "byteOffset": 288304,
      "componentType": 5126,
      "count": 9946,
      "max": [
        8130.85009765625,
        7848.97021484375
      ],
      "min": [
        -8000.52001953125,
        -5669.0
      ],
      "type": "VEC2"
    },
    {
      "bufferView": 0,
      "byteOffset": 386808,
      "componentType": 5125,
      "count": 18390,
      "type": "SCALAR"
    },
    {
      "bufferView": 2,
      "byteOffset": 1103616,
      "componentType": 5126,
      "count": 2133,
      "max": [
        67.60209655761719,
        126.39099884033203,
        39.46070098876953
      ],
      "min": [
        9.305500030517578,
        39.42449951171875,
        11.690699577331543
      ],
      "type": "VEC3"
    },
    {
      "bufferView": 2,
      "byteOffset": 1129212,
      "componentType": 5126,
      "count": 2133,
      "max": [
        1.0,
        0.9945366382598877,
        0.999995768070221
      ],
      "min": [
        -1.0,
        -1.0,
        -0.9992877840995789
      ],
      "type": "VEC3"
    },
    {
      "bufferView": 1,
      "byteOffset": 367872,
      "componentType": 5126,
      "count": 2133,
      "max": [
        10293.599609375,
        6799.93017578125
      ],
      "min": [
        -10294.099609375,
        -6471.72998046875
      ],
      "type": "VEC2"
    },
    {
      "bufferView": 0,
      "byteOffset": 460368,
      "componentType": 5125,
      "count": 4188,
      "type": "SCALAR"
    },
    {
      "bufferView": 2,
      "byteOffset": 1154808,
      "componentType": 5126,
      "count": 19839,
      "max": [
        67.8551025390625,
        133.66700744628906,
        54.13589859008789
      ],
      "min": [
        8.402009963989258,
        9.933409690856934,
        9.701069831848145
      ],
      "type": "VEC3"
    },
    {
      "bufferView": 2,
      "byteOffset": 1392876,
      "componentType": 5126,
      "count": 19839,
      "max": [
        1.0,
        0.9999992251396179,
        1.0
      ],
      "min": [
        -1.0,
        -1.0,
        -1.0
      ],
      "type": "VEC3"
    },
    {
      "bufferView": 1,
      "byteOffset": 384936,
      "componentType": 5126,
      "count": 19839,
      "max": [
        14812.900390625,
        7289.68017578125
      ],
      "min": [
        -15302.2001953125,
        -10468.0
      ],
      "type": "VEC2"
    },
    {
      "bufferView": 0,
      "byteOffset": 477120,
      "componentType": 5125,
      "count": 30579,
      "type": "SCALAR"
    },
    {
      "bufferView": 2,
      "byteOffset": 1630944,
      "componentType": 5126,
      "count": 9939,
      "max": [
        65.49980163574219,
        120.89299774169922,
        53.55690002441406
      ],
      "min": [
        10.75730037689209,
        6.781179904937744,
        23.298999786376953
      ],
      "type": "VEC3"
    },
    {
      "bufferView": 2,
      "byteOffset": 1750212,
      "componentType": 5126,
      "count": 9939,
      "max": [
        1.0,
        1.0,
        0.9999998807907104
      ],
      "min": [
        -1.0,
        -1.0,
        -0.9997946619987488
      ],
      "type": "VEC3"
    },
    {
      "bufferView": 1,
      "byteOffset": 543648,
      "componentType": 5126,
      "count": 9939,
      "max": [
        14643.5,
        7015.64013671875
      ],
      "min": [
        -15033.7001953125,
        -14910.7998046875
      ],
      "type": "VEC2"
    },
    {
      "bufferView": 0,
      "byteOffset": 599436,
      "componentType": 5125,
      "count": 14292,
      "type": "SCALAR"
    },
    {
      "bufferView": 2,
      "byteOffset": 1869480,
      "componentType": 5126,
      "count": 1649,
      "max": [
        40.58660125732422,
        118.38099670410156,
        51.460601806640625
      ],
      "min": [
        9.49944019317627,
        55.06850051879883,
        19.3031005859375
      ],
      "type": "VEC3"
    },
    {
      "bufferView": 2,
      "byteOffset": 1889268,
      "componentType": 5126,
      "count": 1649,
      "max": [
        0.9999996423721313,
        0.9966449737548828,
        0.9922434687614441
      ],
      "min": [
        -0.9999998807907104,
        -1.0,
        -0.9995296597480774
      ],
      "type": "VEC3"
    },
    {
      "bufferView": 1,
      "byteOffset": 623160,
      "componentType": 5126,
      "count": 1649,
      "max": [
        7840.31982421875,
        3187.090087890625
      ],
      "min": [
        -1277.3699951171875,
        -1156.1800537109375
      ],
      "type": "VEC2"
    },
    {
      "bufferView": 0,
      "byteOffset": 656604,
      "componentType": 5125,
      "count": 3375,
      "type": "SCALAR"
    },
    {
      "bufferView": 2,
      "byteOffset": 1909056,
      "componentType": 5126,
      "count": 588,
      "max": [
        66.21369934082031,
        160.0030059814453,
        19.833799362182617
      ],
      "min": [
        9.684630393981934,
        40.0432014465332,
        7.3620500564575195
      ],
      "type": "VEC3"
    },
    {
      "bufferView": 2,
      "byteOffset": 1916112,
      "componentType": 5126,
      "count": 588,
      "max": [
        1.0,
        0.9994617700576782,
        0.9994622468948364
      ],
      "min": [
        -1.0,
        -0.9994616508483887,
        -0.9994620084762573
      ],
      "type": "VEC3"
    },
    {
      "bufferView": 1,
      "byteOffset": 636352,
      "componentType": 5126,
      "count": 588,
      "max": [
        0.996953010559082,
        1.0002399682998657
      ],
      "min": [
        -0.003596999915316701,
        0.0007609999738633633
      ],
      "type": "VEC2"
    },
    {
      "bufferView": 0,
      "byteOffset": 670104,
      "componentType": 5125,
      "count": 1728,
      "type": "SCALAR"
    },
    {
      "bufferView": 2,
      "byteOffset": 1923168,
      "componentType": 5126,
      "count": 2237,
      "max": [
        67.20570373535156,
        185.343994140625,
        54.22710037231445
      ],
      "min": [
        9.752670288085938,
        5.212250232696533,
        27.78380012512207
      ],
      "type": "VEC3"
    },
    {
      "bufferView": 2,
      "byteOffset": 1950012,
      "componentType": 5126,
      "count": 2237,
      "max": [
        0.9911092519760132,
        0.9999951124191284,
        0.9999995231628418
      ],
      "min": [
        -0.9923714995384216,
        -0.9977418780326843,
        -0.9999980926513672
      ],
      "type": "VEC3"
    },
    {
      "bufferView": 1,
      "byteOffset": 641056,
      "componentType": 5126,
      "count": 2237,
      "max": [
        15317.900390625,
        15225.400390625
      ],
      "min": [
        -15317.2998046875,
        -15308.2998046875
      ],
      "type": "VEC2"
    },
    {
      "bufferView": 0,
      "byteOffset": 677016,
      "componentType": 5125,
      "count": 4260,
      "type": "SCALAR"
    },
    {
      "bufferView": 2,
      "byteOffset": 1976856,
      "componentType": 5126,
      "count": 1343,
      "max": [
        72.8678970336914,
        189.63699340820313,
        43.41450119018555
      ],
      "min": [
        3.03085994720459,
        5.16165018081665,
        12.759499549865723
      ],
      "type": "VEC3"
    },
    {
      "bufferView": 2,
      "byteOffset": 1992972,
      "componentType": 5126,
      "count": 1343,
      "max": [
        0.9999983310699463,
        0.9999681115150452,
        0.9972898960113525
      ],
      "min": [
        -0.9999980926513672,
        -0.9999916553497314,
        -0.9423572421073914
      ],
      "type": "VEC3"
    },
    {
      "bufferView": 1,
      "byteOffset": 658952,
      "componentType": 5126,
      "count": 1343,
      "max": [
        0.990693986415863,
        0.992913007736206
      ],
      "min": [
        0.008187999948859215,
        0.0016250000335276127
      ],
      "type": "VEC2"
    },
    {
      "bufferView": 0,
      "byteOffset": 694056,
      "componentType": 5125,
      "count": 3138,
      "type": "SCALAR"
    },
    {
      "bufferView": 2,
      "byteOffset": 2009088,
      "componentType": 5126,
      "count": 7788,
      "max": [
        74.0707015991211,
        163.52499389648438,
        23.407499313354492
      ],
      "min": [
        3.3314599990844727,
        36.92319869995117,
        4.18202018737793
      ],
      "type": "VEC3"
    },
    {
      "bufferView": 2,
      "byteOffset": 2102544,
      "componentType": 5126,
      "count": 7788,
      "max": [
        1.0,
        0.9945062398910522,
        0.9993699789047241
      ],
      "min": [
        -1.0,
        -0.9945099949836731,
        -0.9999821186065674
      ],
      "type": "VEC3"
    },
    {
      "bufferView": 1,
      "byteOffset": 669696,
      "componentType": 5126,
      "count": 7788,
      "max": [
        6527.66015625,
        4979.1201171875
      ],
      "min": [
        -6633.919921875,
        -4752.080078125
      ],
      "type": "VEC2"
    },
    {
      "bufferView": 0,
      "byteOffset": 706608,
      "componentType": 5125,
      "count": 23856,
      "type": "SCALAR"
    },
    {
      "bufferView": 2,
      "byteOffset": 2196000,
      "componentType": 5126,
      "count": 579,
      "max": [
        67.1593017578125,
        150.0989990234375,
        19.464099884033203
      ],
      "min": [
        8.739069938659668,
        39.017799377441406,
        7.907139778137207
      ],
      "type": "VEC3"
    },
    {
      "bufferView": 2,
      "byteOffset": 2202948,
      "componentType": 5126,
      "count": 579,
      "max": [
        0.9999998807907104,
        0.9997054934501648,
        0.992891252040863
      ],
      "min": [
        -0.9999998807907104,
        -0.9987644553184509,
        -0.9626786708831787
      ],
      "type": "VEC3"
    },
    {
      "bufferView": 1,
      "byteOffset": 732000,
      "componentType": 5126,
      "count": 579,
      "max": [
        4863.77001953125,
        9254.1298828125
      ],
      "min": [
        -10039.900390625,
        -10180.400390625
      ],
      "type": "VEC2"
    },
    {
      "bufferView": 0,
      "byteOffset": 802032,
      "componentType": 5125,
      "count": 1260,
      "type": "SCALAR"
    },
    {
      "bufferView": 2,
      "byteOffset": 2209896,
      "componentType": 5126,
      "count": 1100,
      "max": [
        75.55979919433594,
        188.8730010986328,
        50.67470169067383
      ],
      "min": [
        0.3393569886684418,
        6.952239990234375,
        12.029199600219727
      ],
      "type": "VEC3"
    },
    {
      "bufferView": 2,
      "byteOffset": 2223096,
      "componentType": 5126,
      "count": 1100,
      "max": [
        0.9936545491218567,
        0.9985781311988831,
        0.9999944567680359
      ],
      "min": [
        -0.9510392546653748,
        -0.9992607831954956,
        -0.9999998807907104
      ],
      "type": "VEC3"
    },
    {
      "bufferView": 1,
      "byteOffset": 736632,
      "componentType": 5126,
      "count": 1100,
      "max": [
        14998.0,
        14272.099609375
      ],
      "min": [
        -15059.5,
        -15132.7001953125
      ],
      "type": "VEC2"
    },
    {
      "bufferView": 0,
      "byteOffset": 807072,
      "componentType": 5125,
      "count": 1110,
      "type": "SCALAR"
    },
    {
      "bufferView": 2,
      "byteOffset": 2236296,
      "componentType": 5126,
      "count": 2565,
      "max": [
        70.73650360107422,
        192.67100524902344,
        26.446300506591797
      ],
      "min": [
        5.164919853210449,
        3.793720006942749,
        10.253000259399414
      ],
      "type": "VEC3"
    },
    {
      "bufferView": 2,
      "byteOffset": 2267076,
      "componentType": 5126,
      "count": 2565,
      "max": [
        1.0,
        1.0,
        1.0
      ],
      "min": [
        -1.0,
        -1.0,
        -1.0
      ],
      "type": "VEC3"
    },
    {
      "bufferView": 1,
      "byteOffset": 745432,
      "componentType": 5126,
      "count": 2565,
      "max": [
        15435.099609375,
        15396.400390625
      ],
      "min": [
        -15566.400390625,
        -15515.599609375
      ],
      "type": "VEC2"
    },
    {
      "bufferView": 0,
      "byteOffset": 811512,
      "componentType": 5125,
      "count": 2568,
      "type": "SCALAR"
    },
    {
      "bufferView": 2,
      "byteOffset": 2297856,
      "componentType": 5126,
      "count": 2344,
      "max": [
        73.67369842529297,
        167.75999450683594,
        27.589500427246094
      ],
      "min": [
        3.7285099029541016,
        32.68870162963867,
        0.0
      ],
      "type": "VEC3"
    },
    {
      "bufferView": 2,
      "byteOffset": 2325984,
      "componentType": 5126,
      "count": 2344,
      "max": [
        0.9994668960571289,
        0.9999966621398926,
        1.0
      ],
      "min": [
        -0.9994668960571289,
        -0.9999966621398926,
        -1.0
      ],
      "type": "VEC3"
    },
    {
      "bufferView": 1,
      "byteOffset": 765952,
      "componentType": 5126,
      "count": 2344,
      "max": [
        30.011899948120117,
        1.000730037689209
      ],
      "min": [
        -0.0005109999910928309,
        0.03515100106596947
      ],
      "type": "VEC2"
    },
    {
      "bufferView": 0,
      "byteOffset": 821784,
      "componentType": 5125,
      "count": 9000,
      "type": "SCALAR"
    },
    {
      "bufferView": 2,
      "byteOffset": 2354112,
      "componentType": 5126,
      "count": 658,
      "max": [
        67.41500091552734,
        117.81800079345703,
        52.8302001953125
      ],
      "min": [
        8.869819641113281,
        92.52100372314453,
        23.23240089416504
      ],
      "type": "VEC3"
    },
    {
      "bufferView": 2,
      "byteOffset": 2362008,
      "componentType": 5126,
      "count": 658,
      "max": [
        0.9905269742012024,
        0.7332419753074646,
        0.9958542585372925
      ],
      "min": [
        -0.9992411136627197,
        -0.9998677372932434,
        -0.9101969003677368
      ],
      "type": "VEC3"
    },
    {
      "bufferView": 1,
      "byteOffset": 784704,
      "componentType": 5126,
      "count": 658,
      "max": [
        221.98399353027344,
        1222.449951171875
      ],
      "min": [
        -124.93199920654297,
        -375.0530090332031
      ],
      "type": "VEC2"
    },
    {
      "bufferView": 0,
      "byteOffset": 857784,
      "componentType": 5125,
      "count": 1251,
      "type": "SCALAR"
    },
    {
      "bufferView": 2,
      "byteOffset": 2369904,
      "componentType": 5126,
      "count": 473,
      "max": [
        70.1250991821289,
        189.63699340820313,
        37.064998626708984
      ],
      "min": [
        5.773250102996826,
        5.486370086669922,
        12.759499549865723
      ],
      "type": "VEC3"
    },
    {
      "bufferView": 2,
      "byteOffset": 2375580,
      "componentType": 5126,
      "count": 473,
      "max": [
        0.9437146186828613,
        0.9930176138877869,
        0.9679924845695496
      ],
      "min": [
        -0.9437156319618225,
        -0.9931128621101379,
        -0.6591702103614807
      ],
      "type": "VEC3"
    },
    {
      "bufferView": 1,
      "byteOffset": 789968,
      "componentType": 5126,
      "count": 473,
      "max": [
        0.9905099868774414,
        0.9970729947090149
      ],
      "min": [
        0.06637100130319595,
        0.004495000001043081
      ],
      "type": "VEC2"
    },
    {
      "bufferView": 0,
      "byteOffset": 862788,
      "componentType": 5125,
      "count": 1500,
      "type": "SCALAR"
    },
    {
      "bufferView": 2,
      "byteOffset": 2381256,
      "componentType": 5126,
      "count": 6013,
      "max": [
        32.142398834228516,
        108.8239974975586,
        42.970298767089844
      ],
      "min": [
        15.342900276184082,
        102.02100372314453,
        26.77440071105957
      ],
      "type": "VEC3"
    },
    {
      "bufferView": 2,
      "byteOffset": 2453412,
      "componentType": 5126,
      "count": 6013,
      "max": [
        0.9989995360374451,
        0.9995929002761841,
        0.9983456134796143
      ],
      "min": [
        -0.9989994764328003,
        -0.9999440908432007,
        -0.9997348785400391
      ],
      "type": "VEC3"
    },
    {
      "bufferView": 1,
      "byteOffset": 793752,
      "componentType": 5126,
      "count": 6013,
      "max": [
        2660.760009765625,
        2603.6298828125
      ],
      "min": [
        -2605.219970703125,
        -1970.6099853515625
      ],
      "type": "VEC2"
    },
    {
      "bufferView": 0,
      "byteOffset": 868788,
      "componentType": 5125,
      "count": 18387,
      "type": "SCALAR"
    },
    {
      "bufferView": 2,
      "byteOffset": 2525568,
      "componentType": 5126,
      "count": 195,
      "max": [
        10.744000434875488,
        150.0989990234375,
        19.464099884033203
      ],
      "min": [
        8.739069938659668,
        146.89999389648438,
        8.300880432128906
      ],
      "type": "VEC3"
    },
    {
      "bufferView": 2,
      "byteOffset": 2527908,
      "componentType": 5126,
      "count": 195,
      "max": [
        0.9999998807907104,
        0.9997053742408752,
        0.992891252040863
      ],
      "min": [
        -0.9999998807907104,
        -0.9987644553184509,
        -0.9626786708831787
      ],
      "type": "VEC3"
    },
    {
      "bufferView": 1,
      "byteOffset": 841856,
      "componentType": 5126,
      "count": 195,
      "max": [
        5722.2099609375,
        3942.280029296875
      ],
      "min": [
        -3640.47998046875,
        -5672.490234375
      ],
      "type": "VEC2"
    },
    {
      "bufferView": 0,
      "byteOffset": 942336,
      "componentType": 5125,
      "count": 420,
      "type": "SCALAR"
    },
    {
      "bufferView": 2,
      "byteOffset": 2530248,
      "componentType": 5126,
      "count": 633,
      "max": [
        67.51239776611328,
        128.52099609375,
        53.558101654052734
      ],
      "min": [
        9.001649856567383,
        19.078699111938477,
        38.72809982299805
      ],
      "type": "VEC3"
    },
    {
      "bufferView": 2,
      "byteOffset": 2537844,
      "componentType": 5126,
      "count": 633,
      "max": [
        0.8913080096244812,
        0.5000970959663391,
        0.9746562242507935
      ],
      "min": [
        -0.8558571338653564,
        -0.3425460159778595,
        0.45339199900627136
      ],
      "type": "VEC3"
    },
    {
      "bufferView": 1,
      "byteOffset": 843416,
      "componentType": 5126,
      "count": 633,
      "max": [
        10692.900390625,
        2509.530029296875
      ],
      "min": [
        -10794.099609375,
        -12236.0
      ],
      "type": "VEC2"
    },
    {
      "bufferView": 0,
      "byteOffset": 944016,
      "componentType": 5125,
      "count": 633,
      "type": "SCALAR"
    }
  ],
  "asset": {
    "extras": {
      "author": "tonielpro520 (https://sketchfab.com/tonielpro520)",
      "license": "CC-BY-4.0 (http://creativecommons.org/licenses/by/4.0/)",
      "source": "https://sketchfab.com/3d-models/1987-toyota-supra-turbo-f3cb2d62134144c6b8bec82514f97d08",
      "title": "1987 Toyota Supra Turbo"
    },
    "generator": "Sketchfab-17.15.0",
    "version": "2.0"
  },
  "bufferViews": [
    {
      "buffer": 0,
      "byteLength": 946548,
      "name": "floatBufferViews",
      "target": 34963
    },
    {
      "buffer": 0,
      "byteLength": 848480,
      "byteOffset": 946548,
      "byteStride": 8,
      "name": "floatBufferViews",
      "target": 34962
    },
    {
      "buffer": 0,
      "byteLength": 2545440,
      "byteOffset": 1795028,
      "byteStride": 12,
      "name": "floatBufferViews",
      "target": 34962
    }
  ],
  "buffers": [
    {
      "byteLength": 4340468,
      "uri": "scene.bin"
    }
  ],
  "extensionsUsed": [
    "KHR_materials_specular"
  ],
  "images": [
    {
      "uri": "textures/Mat_jester_0_baseColor.png"
    },
    {
      "uri": "textures/Mat_jester_0_specularf0.png"
    },
    {
      "uri": "textures/Mat_jester_0_000_baseColor.png"
    },
    {
      "uri": "textures/Mat_jester_0_002_baseColor.png"
    },
    {
      "uri": "textures/Mat_jester_0_005_baseColor.png"
    },
    {
      "uri": "textures/Mat_jester_0_006_baseColor.png"
    },
    {
      "uri": "textures/Mat_jester_0_007_baseColor.png"
    },
    {
      "uri": "textures/Mat_jester_0_023_baseColor.png"
    },
    {
      "uri": "textures/Mat_jester_0_048_baseColor.png"
    },
    {
      "uri": "textures/Mat_jester_0_050_baseColor.png"
    },
    {
      "uri": "textures/Mat_jester_0_070_baseColor.png"
    },
    {
      "uri": "textures/Mat_jester_0_086_baseColor.png"
    },
    {
      "uri": "textures/Mat_jester_1_baseColor.png"
    },
    {
      "uri": "textures/Mat_jester_1_000_baseColor.png"
    },
    {
      "uri": "textures/Mat_jester_1_001_baseColor.png"
    },
    {
      "uri": "textures/Mat_jester_1_003_baseColor.png"
    },
    {
      "uri": "textures/Mat_jesterbr_baseColor.png"
    }
  ],
  "materials": [
    {
      "doubleSided": true,
      "extensions": {
        "KHR_materials_specular": {
          "specularColorFactor": [
            1.0,
            1.0,
            1.0
          ],
          "specularFactor": 1.0,
          "specularTexture": {
            "index": 1
          }
        }
      },
      "name": "Mat_jester_0",
      "pbrMetallicRoughness": {
        "baseColorTexture": {
          "index": 0
        },
        "metallicFactor": 0.0
      }
    },
    {
      "doubleSided": true,
      "name": "Mat_jester_0_000",
      "pbrMetallicRoughness": {
        "baseColorTexture": {
          "index": 2
        },
        "metallicFactor": 0.0
      }
    },
    {
      "doubleSided": true,
      "name": "Mat_jester_0_002",
      "pbrMetallicRoughness": {
        "baseColorTexture": {
          "index": 3
        },
        "metallicFactor": 0.0
      }
    },
    {
      "doubleSided": true,
      "name": "Mat_jester_0_005",
      "pbrMetallicRoughness": {
        "baseColorTexture": {
          "index": 4
        },
        "metallicFactor": 0.0
      }
    },
    {
      "doubleSided": true,
      "name": "Mat_jester_0_006",
      "pbrMetallicRoughness": {
        "baseColorTexture": {
          "index": 5
        },
        "metallicFactor": 0.0
      }
    },
    {
      "doubleSided": true,
      "name": "Mat_jester_0_007",
      "pbrMetallicRoughness": {
        "baseColorTexture": {
          "index": 6
        },
        "metallicFactor": 0.0
      }
    },
    {
      "doubleSided": true,
      "name": "Mat_jester_0_023",
      "pbrMetallicRoughness": {
        "baseColorTexture": {
          "index": 7
        },
        "metallicFactor": 0.0
      }
    },
    {
      "doubleSided": true,
      "name": "Mat_jester_0_025",
      "pbrMetallicRoughness": {
        "metallicFactor": 0.0
      }
    },
    {
      "doubleSided": true,
      "name": "Mat_jester_0_028",
      "pbrMetallicRoughness": {
        "baseColorFactor": [
          0.6,
          0.6,
          0.6,
          1.0
        ],
        "metallicFactor": 0.0
      }
    },
    {
      "doubleSided": true,
      "name": "Mat_jester_0_048",
      "pbrMetallicRoughness": {
        "baseColorTexture": {
          "index": 8
        },
        "metallicFactor": 0.0
      }
    },
    {
      "doubleSided": true,
      "name": "Mat_jester_0_050",
      "pbrMetallicRoughness": {
        "baseColorTexture": {
          "index": 9
        },
        "metallicFactor": 0.0
      }
    },
    {
      "doubleSided": true,
      "name": "Mat_jester_0_062",
      "pbrMetallicRoughness": {
        "baseColorFactor": [
          1.0,
          0.984314,
          0.945098,
          1.0
        ],
        "metallicFactor": 0.0
      }
    },
    {
      "doubleSided": true,
      "name": "Mat_jester_0_070",
      "pbrMetallicRoughness": {
        "baseColorTexture": {
          "index": 10
        },
        "metallicFactor": 0.0
      }
    },
    {
      "doubleSided": true,
      "name": "Mat_jester_0_086",
      "pbrMetallicRoughness": {
        "baseColorTexture": {
          "index": 11
        },
        "metallicFactor": 0.0
      }
    },
    {
      "doubleSided": true,
      "name": "Mat_jester_1",
      "pbrMetallicRoughness": {
        "baseColorTexture": {
          "index": 12
        },
        "metallicFactor": 0.0
      }
    },
    {
      "doubleSided": true,
      "name": "Mat_jester_1_000",
      "pbrMetallicRoughness": {
        "baseColorTexture": {
          "index": 13
        },
        "metallicFactor": 0.0
      }
    },
    {
      "doubleSided": true,
      "name": "Mat_jester_1_001",
      "pbrMetallicRoughness": {
        "baseColorTexture": {
          "index": 14
        },
        "metallicFactor": 0.0
      }
    },
    {
      "doubleSided": true,
      "name": "Mat_jester_1_003",
      "pbrMetallicRoughness": {
        "baseColorTexture": {
          "index": 15
        },
        "metallicFactor": 0.0
      }
    },
    {
      "doubleSided": true,
      "name": "Mat_jesterbr",
      "pbrMetallicRoughness": {
        "baseColorTexture": {
          "index": 16
        },
        "metallicFactor": 0.0
      }
    },
    {
      "alphaMode": "BLEND",
      "doubleSided": true,
      "name": "Translucent_Glass_Gray",
      "pbrMetallicRoughness": {
        "baseColorFactor": [
          0.501961,
          0.501961,
          0.501961,
          0.5
        ],
        "metallicFactor": 0.0
      }
    }
  ],
  "meshes": [
    {
      "name": "Object_0",
      "primitives": [
        {
          "attributes": {
            "NORMAL": 1,
            "POSITION": 0,
            "TEXCOORD_0": 2
          },
          "indices": 3,
          "material": 0,
          "mode": 4
        }
      ]
    },
    {
      "name": "Object_1",
      "primitives": [
        {
          "attributes": {
            "NORMAL": 5,
            "POSITION": 4,
            "TEXCOORD_0": 6
          },
          "indices": 7,
          "material": 11,
          "mode": 4
        }
      ]
    },
    {
      "name": "Object_2",
      "primitives": [
        {
          "attributes": {
            "NORMAL": 9,
            "POSITION": 8,
            "TEXCOORD_0": 10
          },
          "indices": 11,
          "material": 14,
          "mode": 4
        }
      ]
    },
    {
      "name": "Object_3",
      "primitives": [
        {
          "attributes": {
            "NORMAL": 13,
            "POSITION": 12,
            "TEXCOORD_0": 14
          },
          "indices": 15,
          "material": 15,
          "mode": 4
        }
      ]
    },
    {
      "name": "Object_4",
      "primitives": [
        {
          "attributes": {
            "NORMAL": 17,
            "POSITION": 16,
            "TEXCOORD_0": 18
          },
          "indices": 19,
          "material": 1,
          "mode": 4
        }
      ]
    },
    {
      "name": "Object_5",
      "primitives": [
        {
          "attributes": {
            "NORMAL": 21,
            "POSITION": 20,
            "TEXCOORD_0": 22
          },
          "indices": 23,
          "material": 1,
          "mode": 4
        }
      ]
    },
    {
      "name": "Object_6",
      "primitives": [
        {
          "attributes": {
            "NORMAL": 25,
            "POSITION": 24,
            "TEXCOORD_0": 26
          },
          "indices": 27,
          "material": 2,
          "mode": 4
        }
      ]
    },
    {
      "name": "Object_7",
      "primitives": [
        {
          "attributes": {
            "NORMAL": 29,
            "POSITION": 28,
            "TEXCOORD_0": 30
          },
          "indices": 31,
          "material": 2,
          "mode": 4
        }
      ]
    },
    {
      "name": "Object_8",
      "primitives": [
        {
          "attributes": {
            "NORMAL": 33,
            "POSITION": 32,
            "TEXCOORD_0": 34
          },
          "indices": 35,
          "material": 3,
          "mode": 4
        }
      ]
    },
    {
      "name": "Object_9",
      "primitives": [
        {
          "attributes": {
            "NORMAL": 37,
            "POSITION": 36,
            "TEXCOORD_0": 38
          },
          "indices": 39,
          "material": 3,
          "mode": 4
        }
      ]
    },
    {
      "name": "Object_10",
      "primitives": [
        {
          "attributes": {
            "NORMAL": 41,
            "POSITION": 40,
            "TEXCOORD_0": 42
          },
          "indices": 43,
          "material": 3,
          "mode": 4
        }
      ]
    },
    {
      "name": "Object_11",
      "primitives": [
        {
          "attributes": {
            "NORMAL": 45,
            "POSITION": 44,
            "TEXCOORD_0": 46
          },
          "indices": 47,
          "material": 3,
          "mode": 4
        }
      ]
    },
    {
      "name": "Object_12",
      "primitives": [
        {
          "attributes": {
            "NORMAL": 49,
            "POSITION": 48,
            "TEXCOORD_0": 50
          },
          "indices": 51,
          "material": 3,
          "mode": 4
        }
      ]
    },
    {
      "name": "Object_13",
      "primitives": [
        {
          "attributes": {
            "NORMAL": 53,
            "POSITION": 52,
            "TEXCOORD_0": 54
          },
          "indices": 55,
          "material": 3,
          "mode": 4
        }
      ]
    },
    {
      "name": "Object_14",
      "primitives": [
        {
          "attributes": {
            "NORMAL": 57,
            "POSITION": 56,
            "TEXCOORD_0": 58
          },
          "indices": 59,
          "material": 9,
          "mode": 4
        }
      ]
    },
    {
      "name": "Object_15",
      "primitives": [
        {
          "attributes": {
            "NORMAL": 61,
            "POSITION": 60,
            "TEXCOORD_0": 62
          },
          "indices": 63,
          "material": 10,
          "mode": 4
        }
      ]
    },
    {
      "name": "Object_16",
      "primitives": [
        {
          "attributes": {
            "NORMAL": 65,
            "POSITION": 64,
            "TEXCOORD_0": 66
          },
          "indices": 67,
          "material": 4,
          "mode": 4
        }
      ]
    },
    {
      "name": "Object_17",
      "primitives": [
        {
          "attributes": {
            "NORMAL": 69,
            "POSITION": 68,
            "TEXCOORD_0": 70
          },
          "indices": 71,
          "material": 5,
          "mode": 4
        }
      ]
    },
    {
      "name": "Object_18",
      "primitives": [
        {
          "attributes": {
            "NORMAL": 73,
            "POSITION": 72,
            "TEXCOORD_0": 74
          },
          "indices": 75,
          "material": 6,
          "mode": 4
        }
      ]
    },
    {
      "name": "Object_19",
      "primitives": [
        {
          "attributes": {
            "NORMAL": 77,
            "POSITION": 76,
            "TEXCOORD_0": 78
          },
          "indices": 79,
          "material": 7,
          "mode": 4
        }
      ]
    },
    {
      "name": "Object_20",
      "primitives": [
        {
          "attributes": {
            "NORMAL": 81,
            "POSITION": 80,
            "TEXCOORD_0": 82
          },
          "indices": 83,
          "material": 8,
          "mode": 4
        }
      ]
    },
    {
      "name": "Object_21",
      "primitives": [
        {
          "attributes": {
            "NORMAL": 85,
            "POSITION": 84,
            "TEXCOORD_0": 86
          },
          "indices": 87,
          "material": 12,
          "mode": 4
        }
      ]
    },
    {
      "name": "Object_22",
      "primitives": [
        {
          "attributes": {
            "NORMAL": 89,
            "POSITION": 88,
            "TEXCOORD_0": 90
          },
          "indices": 91,
          "material": 13,
          "mode": 4
        }
      ]
    },
    {
      "name": "Object_23",
      "primitives": [
        {
          "attributes": {
            "NORMAL": 93,
            "POSITION": 92,
            "TEXCOORD_0": 94
          },
          "indices": 95,
          "material": 16,
          "mode": 4
        }
      ]
    },
    {
      "name": "Object_24",
      "primitives": [
        {
          "attributes": {
            "NORMAL": 97,
            "POSITION": 96,
            "TEXCOORD_0": 98
          },
          "indices": 99,
          "material": 17,
          "mode": 4
        }
      ]
    },
    {
      "name": "Object_25",
      "primitives": [
        {
          "attributes": {
            "NORMAL": 101,
            "POSITION": 100,
            "TEXCOORD_0": 102
          },
          "indices": 103,
          "material": 18,
          "mode": 4
        }
      ]
    },
    {
      "name": "Object_26",
      "primitives": [
        {
          "attributes": {
            "NORMAL": 105,
            "POSITION": 104,
            "TEXCOORD_0": 106
          },
          "indices": 107,
          "material": 19,
          "mode": 4
        }
      ]
    }
  ],
  "nodes": [
    {
      "children": [
        1
      ],
      "matrix": [
        1.0,
        0.0,
        0.0,
        0.0,
        0.0,
        2.220446049250313e-16,
        -1.0,
        0.0,
        0.0,
        1.0,
        2.220446049250313e-16,
        0.0,
        0.0,
        0.0,
        0.0,
        1.0
      ],
      "name": "Sketchfab_model"
    },
    {
      "children": [
        2,
        3,
        4,
        5,
        6,
        7,
        8,
        9,
        10,
        11,
        12,
        13,
        14,
        15,
        16,
        17,
        18,
        19,
        20,
        21,
        22,
        23,
        24,
        25,
        26,
        27,
        28
      ],
      "name": "da59a421-3d4e-43af-9557-76c050fefd92.obj.cleaner.materialmerger.gles"
    },
    {
      "mesh": 0,
      "name": "Object_2"
    },
    {
      "mesh": 1,
      "name": "Object_3"
    },
    {
      "mesh": 2,
      "name": "Object_4"
    },
    {
      "mesh": 3,
      "name": "Object_5"
    },
    {
      "mesh": 4,
      "name": "Object_6"
    },
    {
      "mesh": 5,
      "name": "Object_7"
    },
    {
      "mesh": 6,
      "name": "Object_8"
    },
    {
      "mesh": 7,
      "name": "Object_9"
    },
    {
      "mesh": 8,
      "name": "Object_10"
    },
    {
      "mesh": 9,
      "name": "Object_11"
    },
    {
      "mesh": 10,
      "name": "Object_12"
    },
    {
      "mesh": 11,
      "name": "Object_13"
    },
    {
      "mesh": 12,
      "name": "Object_14"
    },
    {
      "mesh": 13,
      "name": "Object_15"
    },
    {
      "mesh": 14,
      "name": "Object_16"
    },
    {
      "mesh": 15,
      "name": "Object_17"
    },
    {
      "mesh": 16,
      "name": "Object_18"
    },
    {
      "mesh": 17,
      "name": "Object_19"
    },
    {
      "mesh": 18,
      "name": "Object_20"
    },
    {
      "mesh": 19,
      "name": "Object_21"
    },
    {
      "mesh": 20,
      "name": "Object_22"
    },
    {
      "mesh": 21,
      "name": "Object_23"
    },
    {
      "mesh": 22,
      "name": "Object_24"
    },
    {
      "mesh": 23,
      "name": "Object_25"
    },
    {
      "mesh": 24,
      "name": "Object_26"
    },
    {
      "mesh": 25,
      "name": "Object_27"
    },
    {
      "mesh": 26,
      "name": "Object_28"
    }
  ],
  "samplers": [
    {
      "magFilter": 9729,
      "minFilter": 9987,
      "wrapS": 10497,
      "wrapT": 10497
    }
  ],
  "scene": 0,
  "scenes": [
    {
      "name": "Sketchfab_Scene",
      "nodes": [
        0
      ]
    }
  ],
  "textures": [
    {
      "sampler": 0,
      "source": 0
    },
    {
      "sampler": 0,
      "source": 1
    },
    {
      "sampler": 0,
      "source": 2
    },
    {
      "sampler": 0,
      "source": 3
    },
    {
      "sampler": 0,
      "source": 4
    },
    {
      "sampler": 0,
      "source": 5
    },
    {
      "sampler": 0,
      "source": 6
    },
    {
      "sampler": 0,
      "source": 7
    },
    {
      "sampler": 0,
      "source": 8
    },
    {
      "sampler": 0,
      "source": 9
    },
    {
      "sampler": 0,
      "source": 10
    },
    {
      "sampler": 0,
      "source": 11
    },
    {
      "sampler": 0,
      "source": 12
    },
    {
      "sampler": 0,
      "source": 13
    },
    {
      "sampler": 0,
      "source": 14
    },
    {
      "sampler": 0,
      "source": 15
    },
    {
      "sampler": 0,
      "source": 16
    }
  ]
}
